<svg xmlns="http://www.w3.org/2000/svg" width="30.676" height="46.784" viewBox="0 0 30.676 46.784">
  <g id="layer1" transform="translate(-15.935 -10.434)">
    <g id="g3841" transform="translate(214.35 -157.87)">
      <path id="path3047" d="M-183.242,214.932c-.05-.137-.3-1.057-.561-2.045a41.72,41.72,0,0,0-4.149-9.864c-1.1-1.939-1.3-2.249-4.518-7.014-5.2-7.7-6.113-9.861-5.921-14.008a12.846,12.846,0,0,1,4.444-9.4,15.129,15.129,0,0,1,8.392-4.109c8.115-1.253,15.988,3.837,17.583,11.367a16.526,16.526,0,0,1-.175,6.418c-.51,1.8-2.555,5.443-5.445,9.7-5.217,7.681-7.192,11.518-8.671,16.841-.573,2.061-.809,2.573-.978,2.113Z" fill="#fff"/>
      <path id="path3049" d="M-194.117,200.229a6.07,6.07,0,0,1-6.336,5.763,6.07,6.07,0,0,1-6.336-5.763,6.07,6.07,0,0,1,6.336-5.763A6.07,6.07,0,0,1-194.117,200.229Z" transform="translate(17.466 -15.442)" fill="#f41922"/>
    </g>
  </g>
</svg>
